<svg width="169" height="29" viewBox="0 0 169 29" fill="none" xmlns="http://www.w3.org/2000/svg">
<path d="M27.5301 27.5301L21.5023 21.4915M24.8427 13.4213C24.8427 16.4505 23.6394 19.3555 21.4974 21.4974C19.3555 23.6394 16.4505 24.8427 13.4213 24.8427C10.3922 24.8427 7.48715 23.6394 5.34523 21.4974C3.20332 19.3555 2 16.4505 2 13.4213C2 10.3922 3.20332 7.48715 5.34523 5.34523C7.48715 3.20332 10.3922 2 13.4213 2C16.4505 2 19.3555 3.20332 21.4974 5.34523C23.6394 7.48715 24.8427 10.3922 24.8427 13.4213Z" stroke="#A1A1A1" stroke-width="2.79235" stroke-linecap="round" stroke-linejoin="round"/>
<path d="M86.3008 2C84.8725 2 83.5027 2.56737 82.4928 3.5773C81.4829 4.58722 80.9155 5.95697 80.9155 7.38523C80.9155 8.81348 81.4829 10.1832 82.4928 11.1932C83.5027 12.2031 84.8725 12.7705 86.3008 12.7705C87.729 12.7705 89.0988 12.2031 90.1087 11.1932C91.1186 10.1832 91.686 8.81348 91.686 7.38523C91.686 5.95697 91.1186 4.58722 90.1087 3.5773C89.0988 2.56737 87.729 2 86.3008 2Z" fill="#A1A1A1"/>
<path fill-rule="evenodd" clip-rule="evenodd" d="M76.713 16.646C77.4704 15.8886 78.4978 15.4631 79.5689 15.4631H93.032C94.1032 15.4631 95.1305 15.8886 95.888 16.646C96.6454 17.4035 97.0709 18.4308 97.0709 19.502C97.0709 22.507 95.8323 24.9141 93.8075 26.5432C91.8123 28.1453 89.1358 28.9261 86.3005 28.9261C83.4652 28.9261 80.7887 28.1453 78.7935 26.5432C76.7659 24.9141 75.53 22.507 75.53 19.502C75.53 18.4308 75.9556 17.4035 76.713 16.646ZM93.984 18.55C93.7315 18.2975 93.3891 18.1557 93.032 18.1557H79.5689C79.2119 18.1557 78.8694 18.2975 78.617 18.55C78.3645 18.8025 78.2226 19.1449 78.2226 19.502C78.2226 21.7019 79.0977 23.3336 80.4791 24.4429C81.8954 25.5792 83.931 26.2335 86.3005 26.2335C88.67 26.2335 90.7056 25.5792 92.1219 24.4429C93.5032 23.3336 94.3783 21.7019 94.3783 19.502C94.3783 19.1449 94.2365 18.8025 93.984 18.55Z" fill="#A1A1A1"/>
<circle cx="86.3008" cy="7.38524" r="2.69261" fill="white"/>
<path d="M146.095 11.9144C146.145 11.2806 146.433 10.6892 146.901 10.258C147.368 9.82677 147.98 9.58739 148.616 9.58752H163.865C164.501 9.58739 165.113 9.82677 165.58 10.258C166.048 10.6892 166.335 11.2806 166.386 11.9144L167.402 24.5603C167.43 24.9083 167.385 25.2583 167.271 25.5883C167.157 25.9183 166.976 26.2211 166.739 26.4777C166.503 26.7343 166.215 26.9391 165.896 27.0792C165.576 27.2193 165.231 27.2917 164.881 27.2918H147.599C147.25 27.2917 146.905 27.2193 146.585 27.0792C146.265 26.9391 145.978 26.7343 145.741 26.4777C145.505 26.2211 145.324 25.9183 145.21 25.5883C145.096 25.2583 145.051 24.9083 145.079 24.5603L146.095 11.9144V11.9144Z" stroke="#A1A1A1" stroke-width="2.52918" stroke-linecap="round" stroke-linejoin="round"/>
<path d="M161.299 13.3813V7.05837C161.299 5.71681 160.766 4.43019 159.817 3.48156C158.869 2.53293 157.582 2 156.24 2C154.899 2 153.612 2.53293 152.664 3.48156C151.715 4.43019 151.182 5.71681 151.182 7.05837V13.3813" stroke="#A1A1A1" stroke-width="2.52918" stroke-linecap="round" stroke-linejoin="round"/>
</svg>
